HIERARCHY
ROOT Hips
{
	OFFSET 0.00000 0.00000 0.00000
	CHANNELS 6 Xposition Yposition Zposition Zrotation Yrotation Xrotation 
	JOINT LHipJoint
	{
		OFFSET 0 0 0
		CHANNELS 3 Zrotation Yrotation Xrotation
		JOINT LeftUpLeg
		{
			OFFSET 1.84395 -1.68683 0.74144
			CHANNELS 3 Zrotation Yrotation Xrotation
			JOINT LeftLeg
			{
				OFFSET 2.27037 -6.23779 0.00000
				CHANNELS 3 Zrotation Yrotation Xrotation
				JOINT LeftFoot
				{
					OFFSET 2.56918 -7.05877 0.00000
					CHANNELS 3 Zrotation Yrotation Xrotation
					JOINT LeftToeBase
					{
						OFFSET 0.22276 -0.61202 1.71784
						CHANNELS 3 Zrotation Yrotation Xrotation
						End Site
						{
							OFFSET 0.00000 -0.00000 0.91613
						}
					}
				}
			}
		}
	}
	JOINT RHipJoint
	{
		OFFSET 0 0 0
		CHANNELS 3 Zrotation Yrotation Xrotation
		JOINT RightUpLeg
		{
			OFFSET -1.76833 -1.68684 0.74144
			CHANNELS 3 Zrotation Yrotation Xrotation
			JOINT RightLeg
			{
				OFFSET -2.49360 -6.85110 0.00000
				CHANNELS 3 Zrotation Yrotation Xrotation
				JOINT RightFoot
				{
					OFFSET -2.55538 -7.02085 0.00000
					CHANNELS 3 Zrotation Yrotation Xrotation
					JOINT RightToeBase
					{
						OFFSET -0.21516 -0.59115 1.68050
						CHANNELS 3 Zrotation Yrotation Xrotation
						End Site
						{
							OFFSET -0.00000 -0.00000 0.89604
						}
					}
				}
			}
		}
	}
	JOINT LowerBack
	{
		OFFSET 0 0 0
		CHANNELS 3 Zrotation Yrotation Xrotation
		JOINT Spine
		{
			OFFSET 0.06382 1.72312 -0.19613
			CHANNELS 3 Zrotation Yrotation Xrotation
			JOINT Spine1
			{
				OFFSET -0.00055 1.73507 0.23859
				CHANNELS 3 Zrotation Yrotation Xrotation
				JOINT Neck
				{
					OFFSET 0 0 0
					CHANNELS 3 Zrotation Yrotation Xrotation
					JOINT Neck1
					{
						OFFSET 0.03638 1.65562 0.09633
						CHANNELS 3 Zrotation Yrotation Xrotation
						JOINT Head
						{
							OFFSET 0.06388 1.62807 -0.32386
							CHANNELS 3 Zrotation Yrotation Xrotation
							End Site
							{
								OFFSET 0.00995 1.67644 -0.12021
							}
						}
					}
				}
				JOINT LeftShoulder
				{
					OFFSET 0 0 0
					CHANNELS 3 Zrotation Yrotation Xrotation
					JOINT LeftArm
					{
						OFFSET 3.09648 1.42991 0.28122
						CHANNELS 3 Zrotation Yrotation Xrotation
						JOINT LeftForeArm
						{
							OFFSET 5.11878 -0.00000 -0.00000
							CHANNELS 3 Zrotation Yrotation Xrotation
							JOINT LeftHand
							{
								OFFSET 3.59971 -0.00000 0.00000
								CHANNELS 3 Zrotation Yrotation Xrotation
								JOINT LeftFingerBase
								{
									OFFSET 0 0 0
									CHANNELS 3 Zrotation Yrotation Xrotation
									JOINT LeftHandIndex1
									{
										OFFSET 0.62877 -0.00000 0.00000
										CHANNELS 3 Zrotation Yrotation Xrotation
										End Site
										{
											OFFSET 0.50693 -0.00000 0.00000
										}
									}
								}
								JOINT LThumb
								{
									OFFSET 0 0 0
									CHANNELS 3 Zrotation Yrotation Xrotation
									End Site
									{
										OFFSET 0.51467 -0.00000 0.51467
									}
								}
							}
						}
					}
				}
				JOINT RightShoulder
				{
					OFFSET 0 0 0
					CHANNELS 3 Zrotation Yrotation Xrotation
					JOINT RightArm
					{
						OFFSET -3.33565 1.14597 0.05047
						CHANNELS 3 Zrotation Yrotation Xrotation
						JOINT RightForeArm
						{
							OFFSET -5.49020 -0.00000 0.00000
							CHANNELS 3 Zrotation Yrotation Xrotation
							JOINT RightHand
							{
								OFFSET -3.20659 -0.00000 -0.00000
								CHANNELS 3 Zrotation Yrotation Xrotation
								JOINT RightFingerBase
								{
									OFFSET 0 0 0
									CHANNELS 3 Zrotation Yrotation Xrotation
									JOINT RightHandIndex1
									{
										OFFSET -0.69188 -0.00000 0.00000
										CHANNELS 3 Zrotation Yrotation Xrotation
										End Site
										{
											OFFSET -0.55781 -0.00000 0.00000
										}
									}
								}
								JOINT RThumb
								{
									OFFSET 0 0 0
									CHANNELS 3 Zrotation Yrotation Xrotation
									End Site
									{
										OFFSET -0.56633 -0.00000 0.56633
									}
								}
							}
						}
					}
				}
			}
		}
	}
}
MOTION
Frames: 7
Frame Time: .0083333
0.1034 17.5266 8.4657 0 0 0 0 0 0 -21 0 0 0 0 0 0 0 0 0 0 0 0 0 0 21 0 0 0 0 0 0 0 0 0 0 0 0 0 0 0 0 0 0 0 0 0 0 -16 0 0 21 0 0 11 0 0 0 -8 0 0 0 0 0 0 0 0 0 0 0 0 0 0 0 0 0 0 0 0 8 0 0 0 0 0 0 0 0 0 0 0 0 0 0 0 0 0
0.1034 17.5266 8.4657 -7.6536 -1.0717 10.6492 0.0000 0.0000 0.0000 -18.1291 -40.7398 20.8205 0.0463 -1.3881 -3.8174 -5.3020 42.4600 -41.7959 0.3596 3.8523 10.6615 0.0000 0.0000 0.0000 25.2367 25.6771 4.8122 -0.0118 -0.7007 1.9258 1.0695 -21.9896 -21.9380 -0.0750 -1.7665 4.8607 6.1774 2.4286 -0.3184 -1.4371 3.5216 -10.4558 -5.2936 1.0907 -10.5550 -11.7465 -15.8804 -4.8347 10.9802 -26.5675 35.6671 1.9126 -11.8105 17.1086 0.0000 -0.0000 0.0000 -87.1386 8.8062 11.4946 9.0009 -15.1618 -1.2003 -0.0000 -0.0000 39.5518 13.3746 -15.3164 -3.5938 -7.1250 0.0000 -0.0000 -9.5954 14.4107 7.0063 0.0000 -0.0000 0.0000 98.3475 -14.1074 -5.5280 -14.4698 23.4024 -3.0122 0.0000 0.0000 46.8773 12.3451 -34.0928 -6.9940 7.1250 -0.0000 -0.0000 48.8814 -57.1407 -17.2915
0.1002 17.5247 8.4632 -7.7797 -1.1112 10.6412 0.0000 0.0000 0.0000 -17.9557 -40.6845 20.8123 0.0470 -1.3993 -3.8482 -5.2520 42.4233 -41.9257 0.3753 3.9344 10.8923 0.0000 0.0000 0.0000 25.3826 25.6941 4.7747 -0.0122 -0.7135 1.9609 1.0817 -21.9986 -21.8170 -0.0652 -1.6477 4.5329 6.1908 2.3420 -0.2981 -1.1950 3.4226 -10.3438 -5.0284 1.0607 -10.4649 -11.4564 -15.8222 -4.0692 11.0903 -25.9508 33.0838 2.1591 -11.6870 15.4427 0.0000 -0.0000 0.0000 -87.5007 8.5901 11.4387 8.9600 -15.0966 -1.1897 -0.0000 -0.0000 38.6510 14.1796 -15.1686 -3.7824 -7.1250 0.0000 -0.0000 -9.0532 14.4932 6.5836 0.0000 -0.0000 0.0000 97.7117 -12.6530 -7.7270 -13.1404 21.4926 -2.5045 0.0000 0.0000 49.4551 11.1271 -33.2876 -6.1611 7.1250 -0.0000 -0.0000 46.9708 -56.8286 -16.0085
0.0968 17.5227 8.4606 -7.9132 -1.1438 10.6433 0.0000 0.0000 0.0000 -17.8482 -40.7608 20.9407 0.0489 -1.4266 -3.9234 -5.2485 42.5039 -42.1471 0.3814 3.9661 10.9812 0.0000 0.0000 0.0000 25.5494 25.7472 4.7653 -0.0128 -0.7291 2.0038 1.0767 -21.9762 -21.8259 -0.0659 -1.6567 4.5579 6.2061 2.2504 -0.2779 -0.9473 3.3177 -10.2421 -4.7590 1.0268 -10.3870 -11.0794 -15.7379 -3.1207 11.1661 -25.2998 30.2443 2.4001 -11.5535 13.7528 -0.0000 0.0000 0.0000 -87.9002 8.3792 11.0944 8.8997 -15.0004 -1.1740 -0.0000 -0.0000 38.1091 15.0191 -15.2829 -4.0453 -7.1250 0.0000 -0.0000 -8.4882 14.3046 6.1975 -0.0000 0.0000 0.0000 97.0640 -11.1802 -10.4638 -11.8363 19.5587 -2.0472 0.0000 0.0000 52.6234 9.8555 -32.4616 -5.3272 7.1250 -0.0000 -0.0000 45.0142 -56.4937 -14.7423
0.0924 17.5201 8.4588 -8.0923 -1.1592 10.6568 0.0000 0.0000 0.0000 -17.6920 -40.8701 21.1013 0.0515 -1.4639 -4.0262 -5.2378 42.5922 -42.4188 0.3951 4.0358 11.1773 0.0000 0.0000 0.0000 25.7931 25.8748 4.8051 -0.0131 -0.7384 2.0293 1.0732 -22.0025 -21.9242 -0.0742 -1.7579 4.8369 6.2643 2.1611 -0.2654 -0.7136 3.2165 -10.1430 -4.5291 0.9900 -10.3046 -9.7632 -15.4981 -0.0351 11.4618 -24.0002 23.5143 2.9686 -11.2975 10.1190 -0.0000 -0.0000 0.0000 -88.2426 8.1607 10.7059 8.8298 -14.8888 -1.1560 -0.0000 -0.0000 37.6945 15.8719 -15.6277 -4.3799 -7.1250 0.0000 -0.0000 -7.9192 13.8753 5.8463 -0.0000 -0.0000 0.0000 96.2503 -8.3733 -18.7092 -9.4266 15.8377 -1.3141 0.0000 0.0000 61.3144 7.4231 -30.6201 -3.7966 7.1250 -0.0000 -0.0000 41.1020 -55.5964 -12.1644
0.0873 17.5171 8.4581 -8.3033 -1.1697 10.6638 0.0000 0.0000 0.0000 -17.4842 -40.9590 21.2509 0.0544 -1.5051 -4.1397 -5.2200 42.6697 -42.6909 0.4174 4.1471 11.4910 0.0000 0.0000 0.0000 26.0770 25.9822 4.8634 -0.0128 -0.7299 2.0059 1.0909 -22.0818 -21.8959 -0.0727 -1.7391 4.7852 6.3425 2.0702 -0.2644 -0.4876 3.1116 -10.0269 -4.3181 0.9507 -10.1949 -9.8669 -15.4646 -0.6211 11.3404 -23.9070 23.6849 2.8982 -11.2322 10.2724 0.0000 0.0000 0.0000 -88.5108 7.9458 10.4825 8.7710 -14.7947 -1.1409 -0.0000 -0.0000 37.1643 16.7890 -15.9981 -4.7534 -7.1250 0.0000 -0.0000 -7.3121 13.4069 5.4630 0.0000 0.0000 0.0000 95.9355 -8.1263 -18.3998 -9.3833 15.7691 -1.3023 0.0000 0.0000 61.3233 7.3521 -30.5612 -3.7535 7.1250 -0.0000 -0.0000 40.9851 -55.5648 -12.0869
0.0810 17.5127 8.4720 -9.0721 -0.9182 10.7764 0.0000 0.0000 0.0000 -16.3902 -40.8789 21.1325 0.0610 -1.5933 -4.3829 -5.3811 42.7808 -42.2726 0.3774 3.9456 10.9237 0.0000 0.0000 0.0000 27.0379 25.8923 4.9091 -0.0111 -0.6788 1.8654 1.1155 -22.1592 -21.7826 -0.0626 -1.6144 4.4412 7.0337 1.9889 -0.6151 -0.1580 3.0240 -9.7658 -4.3188 0.8930 -9.6972 -9.7835 -15.5422 -1.7506 11.1136 -23.9454 23.9783 2.6964 -11.1859 10.5495 -0.0000 0.0000 0.0000 -88.6871 7.4437 10.9177 8.6669 -14.6280 -1.1145 -0.0000 -0.0000 35.5750 18.4555 -16.4286 -5.3920 -7.1250 0.0000 -0.0000 -6.2120 12.7876 4.7114 -0.0000 0.0000 0.0000 95.6863 -7.5310 -18.4603 -9.3089 15.6514 -1.2822 0.0000 0.0000 61.6538 7.0699 -30.4525 -3.5967 7.1250 -0.0000 -0.0000 40.6335 -55.5367 -11.9259
